/* XPM */
static char * 2001_10_16_142326_shot_xpm[] = {
"64 64 244 2",
"  	c None",
". 	c #000000",
"+ 	c #7D0CC5",
"@ 	c #7523D5",
"# 	c #40D6CD",
"$ 	c #61CCDE",
"% 	c #6C13B2",
"& 	c #6546C9",
"* 	c #5096E8",
"= 	c #38D6F3",
"- 	c #34E3F4",
"; 	c #3AE3F5",
"> 	c #8A1CA3",
", 	c #5B0888",
"' 	c #7625C7",
") 	c #548DE5",
"! 	c #43C1F1",
"~ 	c #2DE4F5",
"{ 	c #32E3FD",
"] 	c #2EE5FB",
"^ 	c #36E4EB",
"/ 	c #8F00A1",
"( 	c #8E08B2",
"_ 	c #6173DC",
": 	c #48ABE8",
"< 	c #33DCF5",
"[ 	c #2FE8FB",
"} 	c #54DBE3",
"| 	c #73009A",
"1 	c #7916C5",
"2 	c #34D8EC",
"3 	c #320152",
"4 	c #8606CE",
"5 	c #2AB5CA",
"6 	c #520A76",
"7 	c #7901AC",
"8 	c #8002BD",
"9 	c #4584C9",
"0 	c #2BC3DB",
"a 	c #39D7EB",
"b 	c #66039C",
"c 	c #7101A5",
"d 	c #7D01BB",
"e 	c #565DC5",
"f 	c #25ADBE",
"g 	c #2ECCE2",
"h 	c #35D7D9",
"i 	c #5D0993",
"j 	c #7401AB",
"k 	c #7401B1",
"l 	c #1EB3B9",
"m 	c #24B0C3",
"n 	c #55F5FF",
"o 	c #6705B2",
"p 	c #29ABBD",
"q 	c #25ADC0",
"r 	c #29B7C6",
"s 	c #41E5F1",
"t 	c #540382",
"u 	c #6B04A0",
"v 	c #3799C6",
"w 	c #45D9EA",
"x 	c #3D88C4",
"y 	c #28ACC1",
"z 	c #39E9F5",
"A 	c #5DE6F1",
"B 	c #680494",
"C 	c #7607A8",
"D 	c #7902B3",
"E 	c #5858C9",
"F 	c #2FE4E8",
"G 	c #42105C",
"H 	c #6810A3",
"I 	c #6D09A9",
"J 	c #25B4C9",
"K 	c #32CAE9",
"L 	c #3D74B8",
"M 	c #8130A9",
"N 	c #27959B",
"O 	c #229BAB",
"P 	c #1F8EA0",
"Q 	c #268497",
"R 	c #3867A5",
"S 	c #4F3AA6",
"T 	c #5B2BA6",
"U 	c #672CBE",
"V 	c #2BC1D3",
"W 	c #46AADD",
"X 	c #5047A8",
"Y 	c #3FCAF7",
"Z 	c #2BA5AC",
"` 	c #25A5B8",
" .	c #2292A5",
"..	c #4361A9",
"+.	c #3592BB",
"@.	c #2A9BB7",
"#.	c #2ED4E9",
"$.	c #5532A1",
"%.	c #620992",
"&.	c #696ADB",
"*.	c #47BBF1",
"=.	c #3BA7AA",
"-.	c #29A8B5",
";.	c #29B8D1",
">.	c #6534AE",
",.	c #6B029C",
"'.	c #640393",
").	c #61038B",
"!.	c #562597",
"~.	c #4457A6",
"{.	c #4C5CB6",
"].	c #6924B4",
"^.	c #16E9E2",
"/.	c #3597A0",
"(.	c #4C69C6",
"_.	c #6C3FC9",
":.	c #17938B",
"<.	c #373472",
"[.	c #2797A7",
"}.	c #577FD2",
"|.	c #8202C2",
"1.	c #39A6D7",
"2.	c #35C1CA",
"3.	c #361714",
"4.	c #1A6A71",
"5.	c #257983",
"6.	c #208B94",
"7.	c #1D8B8E",
"8.	c #1D8994",
"9.	c #29A3BF",
"0.	c #5C138A",
"a.	c #30ABB2",
"b.	c #38ACDB",
"c.	c #5A62C8",
"d.	c #218A9B",
"e.	c #1C8B9B",
"f.	c #248BA1",
"g.	c #1E99A7",
"h.	c #2E89B5",
"i.	c #4766B5",
"j.	c #531C90",
"k.	c #5C028A",
"l.	c #27B3B7",
"m.	c #36B7D8",
"n.	c #6B1CB1",
"o.	c #624DD0",
"p.	c #2A8BAC",
"q.	c #42035F",
"r.	c #45A7B7",
"s.	c #25B0BC",
"t.	c #5E3BB7",
"u.	c #650B9B",
"v.	c #621699",
"w.	c #6658D8",
"x.	c #4076BD",
"y.	c #4B086E",
"z.	c #307D89",
"A.	c #5667C6",
"B.	c #31719C",
"C.	c #4C46A6",
"D.	c #53027A",
"E.	c #32B0A9",
"F.	c #0E9590",
"G.	c #3388B7",
"H.	c #2B7A9E",
"I.	c #4B2D88",
"J.	c #3875AF",
"K.	c #2495AA",
"L.	c #1B909B",
"M.	c #4273C3",
"N.	c #23A3B5",
"O.	c #2AC1CC",
"P.	c #29CAD7",
"Q.	c #37F6F6",
"R.	c #39FAFC",
"S.	c #36FCFD",
"T.	c #47B1E4",
"U.	c #45056A",
"V.	c #4C399D",
"W.	c #53319A",
"X.	c #340647",
"Y.	c #35F5FD",
"Z.	c #2C0855",
"`.	c #2E0458",
" +	c #2C75A0",
".+	c #4B449E",
"++	c #5C1BA2",
"@+	c #3C5F9C",
"#+	c #6918A9",
"$+	c #31D4EB",
"%+	c #3BB2E2",
"&+	c #41D6F1",
"*+	c #7018AC",
"=+	c #6225AA",
"-+	c #31BDC9",
";+	c #34E8EB",
">+	c #5049A9",
",+	c #33EBFB",
"'+	c #6358C9",
")+	c #2B0568",
"!+	c #7119B5",
"~+	c #5C51BF",
"{+	c #6435BB",
"]+	c #750CB5",
"^+	c #420162",
"/+	c #558CD3",
"(+	c #5E69D9",
"_+	c #5B1393",
":+	c #499BD6",
"<+	c #830CB7",
"[+	c #9E07DA",
"}+	c #5CA0EB",
"|+	c #5E4FCB",
"1+	c #2BA7C9",
"2+	c #9D00C5",
"3+	c #7D03C1",
"4+	c #4778C5",
"5+	c #43F6E8",
"6+	c #35FAED",
"7+	c #4CF4ED",
"8+	c #8023CC",
"9+	c #3DE7DD",
"0+	c #9012D5",
"a+	c #54AEF1",
"b+	c #2ABAD2",
"c+	c #393539",
"d+	c #35A0C9",
"e+	c #4A989A",
"f+	c #468AA1",
"g+	c #35A19A",
"h+	c #51B3B6",
"i+	c #421068",
"j+	c #3C025B",
"k+	c #3E0260",
"l+	c #45004E",
"m+	c #4B046E",
"n+	c #3A0354",
"o+	c #2D0247",
"p+	c #5B46BF",
"q+	c #4B0272",
"r+	c #33024B",
"s+	c #4099A1",
"t+	c #17A396",
"u+	c #37CBBE",
"                                                                                                                    . . .       ",
"                                                                                                                                ",
"                                                                                                                                ",
"                                                                                                                                ",
"                                                  + @ # $                                                                       ",
"                                            % % & * = - ;                                                                       ",
"                                      > , ' ) ! ~ { { ] ; ^                                                                     ",
"                                  / ( _ : - < ] [ { { { < - }                                                                   ",
"                                  | 1 2 { { { { { { { { ] { - ~                                                                 ",
"                                3 , 4 5 { { { { { { { { { < ] ;                                                                 ",
"                                6 7 8 9 0 { { { { { { { { { { ] a                                                               ",
"                              3 b c d e f g { { { { { ] { { { ] a h                                                             ",
"                              i j 7 k & l m 2 ] { { { { { { [ < { < n                                                           ",
"                              o j j j 1 p q r { { { { { { { ] { ] [ s                                                           ",
"                            t u j j j + v q q 0 ] { { { { { { { ] { ; w                                                         ",
"                            u j k j j 8 x q q y g { { { { { ] { { ; { z A                                                       ",
"                          B 7 C D j j D E p q q q < ] { { { { { { { { < F                                                       ",
"                          G H I I j 7 7 & q f f q J < ] { { { < ] { K L L M                                                     ",
"                          N O P Q R S T U f f q f q V { { { { ] W X i I & Y w                                                   ",
"                            Z y f ` O  . .q L ..+.@.q #.[ < 9 $.%.I &.*.{ { ; ^                                                 ",
"                            =.-.f q q q ;.>.,.'.)., !.~.{.!.u ].) Y ] ; { { { - ^.                                              ",
"                              /.f f p q J (.k k 7 c u ,.c _.: = { { < ] { { { ] ~                         :.:.N <.3             ",
"                                [.p f f q }.j j j j j C |.1.] { { { ] { { { { { ] 2.3.    4.:.5.6.7.Q 8.N O 9...0.6             ",
"                                  a.y q q b.u j j j j k d c.#.{ { { { { { { { < { - Z d.6.8.e.d.e.f.8.g.h.i.j.).k.'.            ",
"                                  l.p m p m.n.j j j j j 7 o.r < { { { { { { { { ] { K ..p.p.g.e.d.O +.X ).k.).k.k.q.            ",
"                                    r.p s.m.t.k j j j j k ' s.;.{ { { { { { { { { { { 9 u.v.].w.y x.b ).k.).k.k.).y.            ",
"                              z.8.Q 6.[.y 5 A.k 7 j j j j 1 y y 0 { { { { { ] { { { [ { & D ' i.f.d.B.R C.v.i B '.D.            ",
"                  E.F.8.6.Q d.8.e.e.N [.@.r 9 k c j j j k d x y q #.{ { { { { { { { { < < G.d.f.e.H.e.f.g.O @.1.E D.            ",
"                y.I.J.K.K.L.d.d.L.O G.$.0.+.b.j 7 j j j j d M.p p J < { { ] { { { { { { < #.N.r O.P.F ^ Q.R.R.S.T.|             ",
"              U., ).k.0.V...@.N.L T k.k.k.W.m.n.j j 7 j 7 d E p q q ;.< { { { { { { { { { ] Q.S.R.S.S.S.S.S.R.R.w ,.X.          ",
"              t k.k.k.k.i n.R K.~.S H b i k.W.I C j I C k j ' p m f m 0 { { { { { { { [ ; { { Y.S.S.S.S.S.S.S.S.S.v.Z.          ",
"            `.k.k.k.,.T ~. +e.e.e.e.H.B..+++,.].R @+S #+j j ' p p f p p $+{ { { { { { { { %+9 &+Q.S.S.S.S.S.S.S.S.*+Z.          ",
"            t ).H =+R e.d.L.N.O r -+P.;+;+a ].o.-.N.O f. +~.t.@.q q q q J < < [ ] { { %+>+%.*+_ ,+S.R.S.S.S.S.S.S.'+)+          ",
"          q.!+~+v O.2.2 ;+Q.S.S.S.R.R.R.S.S.{+' f q q q ` O e.1.i...+.p p 5 { { { %+>+%.]+w.! [ < ,+R.S.S.S.S.S.R.'+B           ",
"          ^+&.Y.S.S.S.R.S.R.S.S.S.S.S.R.S.S./++ p y q q p y m (+D ,.%._+V.J.1.%+X '.]+w.! [ ] { ; { R.S.S.S.S.S.R./+C           ",
"            ]+R.Q.S.S.S.S.S.S.S.S.S.S.S.S.S.:+8 x q q q q y ` i.|.j j u ,.'.0.%.]+w.! ,+{ { { { { { < R.S.S.S.S.S.T.|           ",
"            <+&+Q.S.S.S.S.S.S.S.S.S.S.S.S.S.&+d (.q q q f q p b.k D j j 7 j c 4 : ] < { { { { { { { < ,+S.S.S.S.S.T.C           ",
"            [+}+Q.S.S.S.S.S.S.S.S.S.S.S.S.S.Q.!+|+q f f q q q 1+% 7 8 j j k k d b.{ { { { { { { { { { { ,+S.R.R.R.s n.          ",
"            2+&.R.S.S.S.S.S.S.S.S.S.S.S.S.S.R.>.' p f q q f q 5 ].j 8 3+j j j |.4+g { < ] { { { { { { { { z 5+6+5+7+            ",
"              8+Q.S.S.S.S.S.S.S.S.S.S.S.S.S.S.}.1 1+f q q q q ` & j j |.7 j k ]+c.q 2 { { { ] { { { { [ { z 9+                  ",
"              0+&+S.S.S.S.S.S.S.S.S.S.S.S.S.6+:+d x m m p m y y (.j 7 j k j j D & q J ~ { { { { { { { { { { - Q.                ",
"              ( a+S.S.S.S.S.S.S.S.S.S.S.S.R.R.s D +.y m p p p -.v j j j j k j j ' y y b+{ { { { { { ] { { { - z c+              ",
"              4 _ S.S.S.S.S.S.S.S.S.S.S.S.S.R.S.  ` a.a.-.p m y v 7 c j j d d j 1 d+f f g { { { { { { { { { ] ] s               ",
"              y.~+S.Q.n n S.S.S.S.                      e+Q -.l.b+].j j k j 4 k 3+v s.q q $+{ { { { < ] { { { { {               ",
"                                                              f+m._+% j 7 I D 7 3+M.q y q J < ] { { { { { { { { { ;             ",
"                                                                  g+f. +C.#+j 7 8 c.p q s.q b+{ { { { { [ { ] { { ; w           ",
"                                                                  h+l.-.g.f.H.C.n.E y q p q p g { { { { < < ; < >+%.i+          ",
"                                                                    l.-.q m ` O P K.5 G.m f q y 2 { { { { = 9 _+6 j+X.          ",
"                                                                      a.q p q q y P.T %.j.~.+.y r ~ ~ { :+W.D.U.k+l+            ",
"                                                                      =.p y q q y 0 % j I u '.j.~.d+W $., m+j+n+o+              ",
"                                                                        [.-.p p y 0 p+7 j j j u u B , y.^+j+j+o+                ",
"                                                                          =.p f p J c.j j j k j k ,.^+k+^+j+3                   ",
"                                                                            a.p q J 4+7 j j j 7 ,.q+j+j+j+r+                    ",
"                                                                            s+s.p q 1.7 j j j u q+^+^+q.r+                      ",
"                                                                              r.p y b.k j j j D.^+j+n+r+                        ",
"                                                                                Z 9.g n.j j t k+j+n+o+                          ",
"                                                                                  y V U 7 k.^+n+r+                              ",
"                                                                                  t+;.e b j+`.                                  ",
"                                                                                    u+++j+                                      ",
"                                                                                                                                ",
"                                                                                                                                ",
"                                                                                                                                ",
"                                                                                                                                ",
"                                                                                                                                "};
