/* XPM */
static char *magick[] = {
/* columns rows colors chars-per-pixel */
"64 64 257 2",
"   c black",
".  c #1f0038",
"X  c #3e0000",
"o  c #330010",
"O  c #270038",
"+  c #192a5b",
"@  c #2e004e",
"#  c #370658",
"$  c #3f0875",
"%  c #3b1f79",
"&  c #1c5c75",
"*  c #2c446c",
"=  c #254d7a",
"-  c #51005e",
";  c #470454",
":  c #430464",
">  c #43036b",
",  c #49056e",
"<  c #4d0273",
"1  c #4e0279",
"2  c #451168",
"3  c #500265",
"4  c #520475",
"5  c #52027b",
"6  c #593d71",
"7  c #6b0678",
"8  c #1b7985",
"9  c #1b7a88",
"0  c #167c85",
"q  c #3e4590",
"w  c #385997",
"e  c #3e5ba6",
"r  c #2d648d",
"t  c #286b8e",
"y  c #2b6790",
"u  c #23718a",
"i  c #336197",
"p  c #3e64aa",
"a  c #3e6eb3",
"s  c #3c70af",
"d  c #3779ab",
"f  c #3d71b0",
"g  c #3a79b3",
"h  c #4e0a9d",
"j  c #4f1886",
"k  c #550e89",
"l  c #5a0484",
"z  c #5c038b",
"x  c #590c88",
"c  c #5e0591",
"v  c #5d0b93",
"b  c #520995",
"n  c #55128c",
"m  c #5a1293",
"M  c #5d139a",
"N  c #581c95",
"B  c #5a1c9a",
"V  c #561591",
"C  c #5f04b2",
"Z  c #4b349a",
"A  c #4c3697",
"S  c #532b9b",
"D  c #5a219b",
"F  c #532897",
"G  c #553598",
"H  c #5632a6",
"J  c #64028c",
"K  c #610291",
"L  c #66039b",
"P  c #640b9b",
"I  c #67079a",
"U  c #65109e",
"Y  c #650da4",
"T  c #6b05aa",
"R  c #6b08a4",
"E  c #6c01b7",
"W  c #6714a5",
"Q  c #6b1bb2",
"!  c #7103a5",
"~  c #7203ab",
"^  c #720bad",
"/  c #7a02ab",
"(  c #7503b2",
")  c #7a03b5",
"_  c #7d03bc",
"`  c #760bb8",
"'  c #7513bc",
"]  c #68239e",
"[  c #6221ac",
"{  c #7520b4",
"}  c #6726b7",
"|  c #7e03c1",
" . c #7f08c0",
".. c #7d13c4",
"X. c #7e14c9",
"o. c #7b19c8",
"O. c #771cc1",
"+. c #6c2fc4",
"@. c #6a36c5",
"#. c #6e37d1",
"$. c #722bc9",
"%. c #7524c6",
"&. c #7d2dd1",
"*. c #7038c7",
"=. c #7138cb",
"-. c #44459c",
";. c #49429e",
":. c #434f9e",
">. c #48579d",
",. c #4949a2",
"<. c #4358a7",
"1. c #425baa",
"2. c #4452a3",
"3. c #5441a4",
"4. c #525ab8",
"5. c #5b45b3",
"6. c #4363ac",
"7. c #4f70a3",
"8. c #6043b9",
"9. c #595ac8",
"0. c #5e5fd0",
"q. c #5865ca",
"w. c #536dd1",
"e. c #5b64d1",
"r. c #5071cd",
"t. c #5273d2",
"y. c #5b78d9",
"u. c #4a78ca",
"i. c #6747cb",
"p. c #6351cb",
"a. c #6255d0",
"s. c #6c53d5",
"d. c #704fd8",
"f. c #6466d5",
"g. c #627add",
"h. c #686de0",
"j. c #1b828c",
"k. c #1d8690",
"l. c #208f9c",
"z. c #22949f",
"x. c #259ba4",
"c. c #3886bb",
"v. c #25a4aa",
"b. c #28a8b3",
"n. c #2ab4bb",
"m. c #3baaad",
"M. c #2f9ec4",
"N. c #3995c6",
"B. c #3a93ca",
"V. c #369cc8",
"C. c #2eacc9",
"Z. c #2ab7ca",
"A. c #2eb3d3",
"S. c #2abdd3",
"D. c #2dbbd9",
"F. c #35a4c8",
"G. c #32aed4",
"H. c #39aed9",
"J. c #38add6",
"K. c #33b1d5",
"L. c #32b8d0",
"P. c #32badb",
"I. c #36b3dd",
"U. c #3abde3",
"Y. c #2bc8c6",
"T. c #2cc2d5",
"R. c #2cc5dc",
"E. c #2cc8dd",
"W. c #28cad2",
"Q. c #2ed3da",
"!. c #27d1d1",
"~. c #33c2cb",
"^. c #32c2d5",
"/. c #31c3dd",
"(. c #30cad4",
"). c #3ed2c6",
"_. c #32d6d3",
"`. c #32d5da",
"'. c #35d7dc",
"]. c #2ec6e1",
"[. c #2ecce2",
"{. c #2cd2e4",
"}. c #2ed3ea",
"|. c #20dce0",
" X c #33c4e3",
".X c #33c5e8",
"XX c #30cce4",
"oX c #30cce9",
"OX c #3acee3",
"+X c #32d2e5",
"@X c #30d3ea",
"#X c #38d6e4",
"$X c #31d4f1",
"%X c #2fe5dd",
"&X c #2dfede",
"*X c #2affe7",
"=X c #33e4e6",
"-X c #35ebeb",
";X c #38e9eb",
":X c #3afaeb",
">X c #3af6e7",
",X c #35faf5",
"<X c #3af5f4",
"1X c #3cf4f8",
"2X c #3bfaf5",
"3X c #39fdfd",
"4X c #36f7f7",
"5X c #5a84be",
"6X c #4b95bc",
"7X c #4aacbf",
"8X c #4488c9",
"9X c #4c82d4",
"0X c #468cd6",
"qX c #4599cd",
"wX c #4595d6",
"eX c #5580db",
"rX c #479be1",
"tX c #5e92e0",
"yX c #4faec2",
"uX c #41a4d9",
"iX c #45b0d7",
"pX c #5bb8d1",
"aX c #55a4da",
"sX c #44a5e2",
"dX c #4eb4e7",
"fX c #40b4e6",
"gX c #52aae6",
"hX c #51b4eb",
"jX c #44cbd5",
"kX c #40d2dc",
"lX c #58d9df",
"zX c #4ac5ea",
"xX c #43d6ec",
"cX c #43d4f1",
"vX c #43dcf1",
"bX c #5ee8d9",
"nX c #53f5dd",
"mX c #41e8f5",
"MX c #46fce9",
"NX c #44f6f1",
"BX c #43faf4",
"VX c #48f8f6",
"CX c #51e0e4",
"ZX c #56fbf5",
"AX c #67cde4",
"SX c #8002bd",
"DX c #8108b7",
"FX c #8203c3",
"GX c #8503ca",
"HX c #820bc5",
"JX c #8901cd",
"KX c #8a03c0",
"LX c #8b01d1",
"PX c #8404d4",
"IX c #8112c9",
"UX c #d7cccf",
"YX c None",
/* pixels */
"YXYXYXYXYXYXYXYXYXYXYXYXYXYXYXYXYXYXYXYXYXYXYXYXYXYXYXYXYXYXYXYXYXYXYXYXYXYXYXYXYXYXYXYXYXYXYXYXYXYXYXYXYXYXYXYXYXYXYXYXYXYXYXYX",
"YXYXYXYXYXYXYXYXYXYXYXYXYXYXYXYXYXYXYXYXYXYXYXYXYXYXYXYXYXYXYXYXYXYXYXYXYXYXYXYXYXYXYXYXYXYXYXYXYXYXYXYXYXYXYXYXYXYXYXYXYXYXYXYX",
"YXYXYXYXYXYXYXYXYXYXYXYXYXYXYXYXYXYXYXYXYXYXYXYXYXYXYXYXYXYXYXYXYXYXYXYXYXYXYXYXYXYXYXYXYXYXYXYXYXYXYXYXYXYXYXYXYXYXYXYXYXYXYXYX",
"YXYXYXYXYXYXYXYXYXYXYXYXYXYXYXYXYXYXYXYXYXYXYXYXYXYXYXYXYXYXYXYXYXYXYXYXYXYXYXYXYXYXYXYXYXYXYXYXYXYXYXYXYXYXYXYXYXYXYXYXYXYXYXYX",
"YXYXYXYXYXYXYXYXYXYXYXYXYXYX_ JXJXQ LXLX` b YXYXYXYXYXYXYXYXYXYXYXYXYXYXYXYXYXYXYXYXYXYXYXYXYXYXYXYXYXYXYXYXYXYXYXYXYXYXYXYXYXYX",
"YXYXYXYXYXYXYX*X' JXGXGXGXHXJXJXJXJXLXDXS /.'.UXYXYXYXYXYXYXYXYXYXYXYXYXYXYXYXYXYXYXYXYXYXYXYXYXYXYXYXYXYXYXYXYXYXYXYXYXYXYXYXYX",
"YXYXYXYXYXYXYX2XzXi.KXLXLXJXJXJXJXJXR <.[.}.}.`.YXYXYXYXYXYXYXYXYXYXYXYXYXYXYXYXYXYXYXYXYXYXYXYXYXYXYXYXYXYXYXYXYXYXYXYXYXYXYXYX",
"YXYXYXYXYXYX&X2X3XVXdXi.GXGXJXJX| B B.@X}.}.@X{.jXYXYXYXYXYXYXYXYXYXYXYXYXYXYXYXYXYXYXYXYXYXYXYXYXYXYXYXYXYXYXYXYXYXYXYXYXYXYXYX",
"YXYXYXYXYXYX3X3X2X3X3X3XdX=.GX~ Z ].}.$X}.}.}.}.#XYXYXYXYXYXYXYXYXYXYXYXYXYXYXYXYXYXYXYXYXYXYXYXYXYXYXYXYXYXYXYXYXYXYXYXYXYXYXYX",
"YXYXYXYXYX:X3X3X3X3X3X3X3X1Xe.n [.}.}.}.}.}.}.}.}.OXYXYXYXYXYXYXYXYXYXYXYXYXYXYXYXYXYXYXYXYXYXYXYXYXYXYXYXYXYXYXYXYXYXYXYXYXYXYX",
"YXYXYXYXYXNX3X3X3X3X3X3X3X<Xw U S.}.}.}.}.}.}.}.@X@X_.YXYXYXYXYXYXYXYXYXYXYXYXYXYXYXYXYXYXYXYXYXYXYXYXYXYXYXYXYXYXYXYXYXYXYXYXYX",
"YXYXYXYXYX,X3X3X3X3X3X3X3XZ.r L M.[.}.}.}.}.}.}.}.}.+XYXYXYXYXYXYXYXYXYXYXYXYXYXYXYXYXYXYXYXYXYXYXYXYXYXYXYXYXYXYXYXYXYXYXYXYXYX",
"YXYXYXYXZX3X3X3X3X3X3X3X<Xk.8 ! c.T.[.}.}.}.}.}.}.@X@X{.YXYXYXYXYXYXYXYXYXYXYXYXYXYXYXYXYXYXYXYXYXYXYXYXYXYXYXYXYXYXYXYXYXYXYXYX",
"YXYXYXYX2X3X3X3X3X3X3X3X(.8 8 W s S.T.{.}.}.}.}.}.}.}.+XQ.YXYXYXYXYXYXYXYXYXYXYXYXYXYXYXYXYXYXYXJ FXGX) JXGX) jXYXYXYXYXYXYXYXYX",
"YXYXYX,X4X3X3X3X3X3X3X1Xl.8 0 [ :.T.S.T.}.}.}.}.}.}.}.}.#X|.YXYXYXYXYX! JXGXE LXLXFX4 W JXGXGXJXJXJXJXJXJX_ F }.Q.YXYXYXYXYXYXYX",
"YXYXYXBX3X3X3X3X3X3X3X`.9 8 0 q >.S.S.T.E.}.{.}.}.}.}.}.y.G HXPX_ GXJXFXJXJXJXJXJXU F.U.e.o.FXJXJXJXJXJX( A ].}.}.Y.YXYXYXYXYXYX",
"YXYXVX3X3X3X3X3X3X3X3Xx.8 8 t 3.7.q.G.S.S.[.}.}.@X@X.Xp.v F.wX$.GXGXJXJXJXJXJX_ n V.{.[.[. Xw...JXJXJXE Z ].}.}.}.oXYXYXYXYXYXYX",
"YXYXAX#X1X3X3X3X3X3X=X0 9 w ^ Z }. .X.0.G.S.}.}.$XU.+.N J.}.{.XX0X$.GXJXJXJX_ F P.{.[.[.[.[.[.U.t.$.~ <.oX}.$X}.@X@XkXYXYXYXYXYX",
"YXYX`  .d.cX3X3X3X3Xb.8 H ! e oX}.iX` _ X.0.D.}.sXQ Z P.[.[.[.[.{.[.0X$.GX) Z P.XX[.[.[.[.[.XXE.XXP.I G.}.}.}.}.}.@X}.pXYXYXYXYX",
"YXYXYX^ _  .g.vX4X;Xt Q M B.}.$X}.}.5._ | | o.f.R <.[.[.[.[.@X[.[.[.E. Xw.J P.E.E.E.].[.R.[.E.E.E./.K F.oX}.}.}.}.}.}.@XYXYXYXYX",
"YXYXYXYXT SXSXIXg.8X^ G U.}.}.}.@X{.@XDX_ _ _ ~ p [.[.[.E.[.E.E.[.E.R.E.H.c D.E.E.E.E.E.E.E.E.E.E.I.V S.T.}.}.}.}.}.@X}.#Xo YXYX",
"YXYXYXYXYX) _ SXSX( <.oX}.}.}.}.@X}.@X@XT _ SX~ c.E.R.R.E.E.E.E.E.E.R.E.H.K D.R.E.E.E.E.E.E.E.E.R.wXn S.S.].}.}.@X}.}.}.}.jXYXYX",
"YXYXYXYXYX/ ~ SX_ L F.}.}.}.}.}.}.}.}.}.H._ _ ( 6.E.E.E.E.E.E.E.E.E.E.E.H.K P.E.E.E.E.E.E.E.E.E.E.0Xn S.S.S.[.}.}.}.}.}.}.#XYXYX",
"YXYXYXYXYXYX> ~ _ E c.[.}.}.}.}.}.}.}.}.@X4.) ) 6.E.E.E.E.E.E.E.E.E.E.E.H.K D.E.E.E.E.E.E.E.E.E.E.B.G S.S.S.T.}.}.}.}.}.@XwXYXYX",
"YXYXYXYXYXYXYXJ _ SXe T.[.}.}.}.}.}.}.}.@XOX..| ;.E.E.E.E.E.E.E.E.E.E.[.K.K D.[.XX/.E./.E.XXR./.P.M.9.r.A.S.S.E.@X@X}.@Xt.l YXYX",
"YXYXYXYXYXYXYXYXL SXZ S.T.}.}.}.@X}.}.}.@X}.@X_ A E.E.E.E.E.E.E.[.R.E.R. X7 ^.J.V.e.%.FXJXSXLXFXSXH wX%...w.A.S.[.}.}.rXx 2 YXYX",
"YXYXYXYXYXYXYXYXYX` B S.S.[.}.}.}.}.@X}.}.}.}.C.>.E.T.E.(.(.^.L.U.& YXYXYXMX..JXJXJXJXJXJXJXLXGXN K.{.XX9X%.X.t.D.[.sXm < YXYXYX",
"YXYXYXYXYXYXYXYXYX, z Z.S.S.[.}.}.}.@X{.}.@XU.8.YXYXYXYXYXYXYXYXYXYXYXYX3X2XvXf.X.JXJXJXJXJXFXN K.+X[.[.{.XX9X%.o.0.m 1 # YXYXYX",
"YXYXYXYXYXYXYXYXYXYX3 u.A.S.T.[.}.}.}.}.}.sX} ,.#XYXYXYXYXYXYXYXYXYXYXYX,X3X3X2XvXf.HXGXJXFXN G.[.[.{.[.[.[.[.oX9XU 5 1 YXYXYXYX",
"YXYXYXYXYXYXYXYXYXYXX KXO.r.A.S.{.@X}.}.rXY 2.oX}.{.YXYXYXYXYXYXYXYXYXYX2X3X3X3X3X3XvXf.SXN K.XX[.[.E.[.E.E.[.E.E.W 1 # YXYXYXYX",
"YXYXYXYXYXYXYXYXYXYXYXYX( SX$.0XR.}.$Xy.L a }.}.}.}.!.YXYXYXYXYXYXYXYX>X3X3X3X3X3X3X3XBX4.6.R.E.E.E.E.E.E.E.E.E./.N < YXYXYXYXYX",
"YXYXYXYXYXYXYXYXYXYXYXYX. ( SXFX=.uX0.P B.@X}.@X@X}.}.jXYXYXYXYXYXYXbX3X2X3X3X3X3X3X3X_.S s [.E.E.E.E.E.E.E.E.E.H.K : YXYXYXYXYX",
"YXYXYXYXYXYXYXYXYXYXYXYXYX: ( _ _ | B V.}.}.}.}.}.}.}.OXCXYXYXYXYXYX:X3X3X3X3X3X3X3X3Xx.D f E.E.E.E.E.E.E.E.E.E.H.l YXYXYXYXYXYX",
"YXYXYXYXYXYXYXYXYXYXYXYXYXYXl _ _ _ ,.}.}.}.}.}.}.}.}.@X@XYXYXYXYXYX2X3X3X3X3X3X3X3X-X9 B f [.E.[.E.E.R.R.E.E.E.8XJ YXYXYXYXYXYX",
"YXYXYXYXYXYXYXYXYXYXYXYXYXYXYXT | _ S T.}.}.}.}.}.}.@X{.@X'.YXYXYX>X3X3X3X3X3X3X3X2Xb.0 D g [.E.E.[.].[.E.E.R.E.E.YXYXYXYXYXYXYX",
"YXYXYXYXYXYXYXYXYXYXYXYXYXYXYXYXE _ v Z.E.}.}.}.}.}.@X@X@X@X%XYXYXBX3X3X3X3X3X3X3X;X8 8 * T.T.E.R.~.7XYXYXYXYXYXYXYXYXYXYXYXYXYX",
"YXYXYXYXYXYXYXYXYXYXYXYXYXYXYXYXT ( L A.S.[.}.}.}.}.}.}.}.}.{.lXVX3X3X3X3X3X3X3X3Xn.8 ;.: YXYXYXYXYXYXYXYXYXYXYXYXYXYXYXYXYXYXYX",
"YXYXYXYXYXYXYXYXYXYXYXYXYXYXYXYXYX_ L c.S.D.oX}.}.}.}.}.}.}.@XqX5XhX4X2X3X3X3X3X<Xj.,.L YXYXYXYXYXYXYXYXYXYXYXYXYXYXYXYXYXYXYXYX",
"YXYXYXYXYXYXYXYXYXYXYXYXYXYXYXYXYXYXP L.D.S.T.}.}.}.@X}.@X@X9.G aXIXs.zX3X3X3X3Xn.i K : YXYXYXYXYXYXYXYXYXYXYXYXYXYXYXYXYXYXYXYX",
"YXYXYXYXYXYXYXYXYXYXYXYXYXYXYXYXYXYX+ ..9.A.S.R.}.}.}.}..X+.5 NX3XvXf.HXs.vX3X<Xi v 1 1 YXYXYXYXYXYXYXYXYXYXYXYXYXYXYXYXYXYXYXYX",
"YXYXYXYXYXYXYXYXYXYXYXYXYXYXYXYXYXYX<XxX=.X.w.K.E.}.}..X+.5 j 2X3X3X<XcXi.IXh.wXK 5 : YXYXYXYXYXYXYXYXYXYXYXYXYXYXYXYXYXYXYXYXYX",
"YXYXYXYXYXYXYXYXYXYXYXYXYXYXYXYXYXYX<X3X3XgX%.%.9X{. X+.5 < 2X3X3X3X3X3X3XdX*.L 5 < > YXYXYXYXYXYXYXYXYXYXYXYXYXYXYXYXYXYXYXYXYX",
"YXYXYXYXYXYXYXYXYXYXYXYXYXYXYXYXYXNXBX3X2X3XmXy.HX#.+.5 5 , 2X3X3X3X3X3X3X3XuXz 4 , YXYXYXYXYXYXYXYXYXYXYXYXYXYXYXYXYXYXYXYXYXYX",
"YXYXYXYXYXYXYXYXYXYXYXYXYXYXYXYXYX,X3X3X3X3X3X3XvX*.l 5 4 CX3X3X3X3X3X3X3X2Xd z 4 # YXYXYXYXYXYXYXYXYXYXYXYXYXYXYXYXYXYXYXYXYXYX",
"YXYXYXYXYXYXYXYXYXYXYXYXYXYXYXYX2X4X3X3X3X3X3X3X1X6.l 5 4 1X3X3X3X3X3X3X3XQ.r L : YXYXYXYXYXYXYXYXYXYXYXYXYXYXYXYXYXYXYXYXYXYXYX",
"YXYXYXYXYXYXYXYXYXYXYXYXYXYXYXYXBX3X3X3X3X3X3X3X`.w z 1 kX3X3X3X3X3X3X3X3Xz.i L # YXYXYXYXYXYXYXYXYXYXYXYXYXYXYXYXYXYXYXYXYXYXYX",
"YXYXYXYXYXYXYXYXYXYXYXYXYXYXYXZX3X3X3X3X3X3X3X3Xx.r J 1 2X3X3X3X3X3X3X3X`.9 0 Y YXYXYXYXYXYXYXYXYXYXYXYXYXYXYXYXYXYXYXYXYXYXYXYX",
"YXYXYXYXYXYXYXYXYXYXYXYXYXYXYXBX3X3X3X3X3X3X3X#X9 u L 6X3X2X3X3X3X3X3X3Xv.0 r = YXYXYXYXYXYXYXYXYXYXYXYXYXYXYXYXYXYXYXYXYXYXYXYX",
"YXYXYXYXYXYXYXYXYXYXYXYXYXYXMX3X3X3X3X3X3X3X3Xv.9 0 ] NX3X2X3X3X3X3X2X=X8 w Y YXYXYXYXYXYXYXYXYXYXYXYXYXYXYXYXYXYXYXYXYXYXYXYXYX",
"YXYXYXYXYXYXYXYXYXYXYXYXYXYXVX4X3X3X3X3X3X3X=X9 0 -.% O.tX1X3X3X3X3X3Xv.i v : YXYXYXYXYXYXYXYXYXYXYXYXYXYXYXYXYXYXYXYXYXYXYXYXYX",
"YXYXYXYXYXYXYXYXYXYXYXYXYXYXmX2X3X3X3X3X3X3Xb.8 -.k G.wXO.&.gX3X3X3XmXt m < YXYXYXYXYXYXYXYXYXYXYXYXYXYXYXYXYXYXYXYXYXYXYXYXYXYX",
"YXYXYXYXYXYXYXYXYXYXYXYXYXYXIXg.1X3X3X3X3X-Xj.,.k B.[.{. Xw.o.s.cX2XF.m 4 > YXYXYXYXYXYXYXYXYXYXYXYXYXYXYXYXYXYXYXYXYXYXYXYXYXYX",
"YXYXYXYXYXYXYXYXYXYXYXYXYXYX^ ) &.dX3X3X3Xn.-.k N.XXXXXXXX{.I.p.HXg.M 1 < YXYXYXYXYXYXYXYXYXYXYXYXYXYXYXYXYXYXYXYXYXYXYXYXYXYXYX",
"YXYXYXYXYXYXYXYXYXYXYXYXYXYXYX, ) _ s.mX<X2.k N.[.+X{.[.[.XX[.[.wX' 5 5 > YXYXYXYXYXYXYXYXYXYXYXYXYXYXYXYXYXYXYXYXYXYXYXYXYXYXYX",
"YXYXYXYXYXYXYXYXYXYXYXYXYXYXYXYXDX_ _ X.p.x N.[.{.[.[.[.[.[.E.E.R.i.5 5 YXYXYXYXYXYXYXYXYXYXYXYXYXYXYXYXYXYXYXYXYXYXYXYXYXYXYXYX",
"YXYXYXYXYXYXYXYXYXYXYXYXYXYXYXYXYXE _ SX~ c.E.[.E.E.R.E.E.E.E.E.R.w.5 3 YXYXYXYXYXYXYXYXYXYXYXYXYXYXYXYXYXYXYXYXYXYXYXYXYXYXYXYX",
"YXYXYXYXYXYXYXYXYXYXYXYXYXYXYXYXYXYXT FXE g E.E.E.E.E.E.E.E.E.E.R.w.4 YXYXYXYXYXYXYXYXYXYXYXYXYXYXYXYXYXYXYXYXYXYXYXYXYXYXYXYXYX",
"YXYXYXYXYXYXYXYXYXYXYXYXYXYXYXYXYXYXh ) ) 6.E.E.E.E.E.E.E.E.E.R.[.u.1 YXYXYXYXYXYXYXYXYXYXYXYXYXYXYXYXYXYXYXYXYXYXYXYXYXYXYXYXYX",
"YXYXYXYXYXYXYXYXYXYXYXYXYXYXYXYXYXYXYXE _ ,.E.E.E./.E.XXE.E./.^.R.P.@ YXYXYXYXYXYXYXYXYXYXYXYXYXYXYXYXYXYXYXYXYXYXYXYXYXYXYX  YX",
"YXYXYXYXYXYXYXYXYXYXYXYXYXYXYXYXYXYXYXYXJ Z E./.Q.P.T.Y.~.!.v.m.YXYXYXYXYXYXYXYXYXYXYXYXYXYXYXYXYXYXYXYXYXYXYXYXYXYXYXYXYXYXYXYX",
"YXYXYXYXYXYXYXYXYXYXYXYXYXYXYXYXYXYXYXYXYXyX^.E.YXYXYXYXYXYXYXYXYXYXYXYXYXYXYXYXYXYXYXYXYXYXYXYXYXYXYXYXYXYXYXYXYXYXYXYXYXYXYXYX",
"YXYXYXYXYXYXYXYXYXYXYXYXYXYXYXYXYXYXYXYXYXYXYXYXYXYXYXYXYXYXYXYXYXYXYXYXYXYXYXYXYXYXYXYXYXYXYXYXYXYXYXYXYXYXYXYXYXYXYXYXYXYXYXYX",
"YXYXYXYXYXYXYXYXYXYXYXYXYXYXYXYXYXYXYXYXYXYXYXYXYXYXYXYXYXYXYXYXYXYXYXYXYXYXYXYXYXYXYXYXYXYXYXYXYXYXYXYXYXYXYXYXYXYXYXYXYXYXYXYX",
"YXYXYXYXYXYXYXYXYXYXYXYXYXYXYXYXYXYXYXYXYXYXYXYXYXYXYXYXYXYXYXYXYXYXYXYXYXYXYXYXYXYXYXYXYXYXYXYXYXYXYXYXYXYXYXYXYXYXYXYXYXYXYXYX"
};
