/* XPM */
static char * 2001_10_16_142221_shot_xpm[] = {
"64 64 245 2",
"  	c None",
". 	c #68688E",
"+ 	c #661199",
"@ 	c #6D0BAC",
"# 	c #620A92",
"$ 	c #4A1068",
"% 	c #55319C",
"& 	c #43C2DC",
"* 	c #5B4CC3",
"= 	c #711BB5",
"- 	c #7902AD",
"; 	c #8604B6",
"> 	c #500887",
", 	c #3C1457",
"' 	c #B8AEC0",
") 	c #611884",
"! 	c #581B99",
"~ 	c #3AB3D7",
"{ 	c #27CADB",
"] 	c #31C3D9",
"^ 	c #2ABDDB",
"/ 	c #4973C9",
"( 	c #6545C4",
"_ 	c #6D1AB4",
": 	c #6F12AC",
"< 	c #590599",
"[ 	c #7208A8",
"} 	c #8508B5",
"| 	c #590369",
"1 	c #662580",
"2 	c #6C0891",
"3 	c #3778B6",
"4 	c #2DC8E0",
"5 	c #2CC6DC",
"6 	c #2AC8DD",
"7 	c #2EC3E2",
"8 	c #3B9DD6",
"9 	c #427FCA",
"0 	c #6546C6",
"a 	c #6435BE",
"b 	c #360153",
"c 	c #4B68C7",
"d 	c #2BC1D5",
"e 	c #31BADA",
"f 	c #4556B7",
"g 	c #7303AC",
"h 	c #66099D",
"i 	c #580484",
"j 	c #682E91",
"k 	c #5C0A92",
"l 	c #2BBACB",
"m 	c #288EAF",
"n 	c #8511CF",
"o 	c #8A02C4",
"p 	c #64019A",
"q 	c #630294",
"r 	c #63038D",
"s 	c #680A7F",
"t 	c #42024A",
"u 	c #5B0392",
"v 	c #4867BB",
"w 	c #1F99B1",
"x 	c #9709E7",
"y 	c #8402CA",
"z 	c #6E026A",
"A 	c #360356",
"B 	c #416CB4",
"C 	c #2BBBD3",
"D 	c #930BDC",
"E 	c #9903DE",
"F 	c #9B02EA",
"G 	c #8301C5",
"H 	c #36A3B0",
"I 	c #37003F",
"J 	c #3D005A",
"K 	c #5444AB",
"L 	c #27C5DC",
"M 	c #28A5B6",
"N 	c #3C6DB3",
"O 	c #9801E3",
"P 	c #6C019A",
"Q 	c #61139B",
"R 	c #3BA5D7",
"S 	c #2899A8",
"T 	c #400034",
"U 	c #522DA1",
"V 	c #31B9D0",
"W 	c #9601E2",
"X 	c #8706D2",
"Y 	c #3795C7",
"Z 	c #22ACBB",
"` 	c #7609B9",
" .	c #3C0361",
"..	c #5C058B",
"+.	c #6A02A2",
"@.	c #358BB9",
"#.	c #2B82AA",
"$.	c #7D1CD1",
"%.	c #2DABCA",
"&.	c #3673A8",
"*.	c #6A03B1",
"=.	c #330047",
"-.	c #7901B3",
";.	c #7F32E4",
">.	c #5B6CDB",
",.	c #33A5C6",
"'.	c #25B8D0",
").	c #2294A9",
"!.	c #772AD4",
"~.	c #7326CB",
"{.	c #7E03C4",
"].	c #7B02BB",
"^.	c #46026A",
"/.	c #7401B3",
"(.	c #A402F5",
"_.	c #A203ED",
":.	c #A800FB",
"<.	c #8829E4",
"[.	c #7250E4",
"}.	c #4584D4",
"|.	c #26B4C8",
"1.	c #25C2D3",
"2.	c #2AB3CA",
"3.	c #258CA9",
"4.	c #8D02D9",
"5.	c #4C0175",
"6.	c #6A03AB",
"7.	c #8A01CC",
"8.	c #A501F8",
"9.	c #A902F4",
"0.	c #9F02F2",
"a.	c #A208F6",
"b.	c #9322EC",
"c.	c #5F67E2",
"d.	c #5279D1",
"e.	c #31AACD",
"f.	c #25B4C6",
"g.	c #1B9AAB",
"h.	c #7628C8",
"i.	c #8E00D3",
"j.	c #9F0FF2",
"k.	c #793CDC",
"l.	c #1D98A5",
"m.	c #9202D9",
"n.	c #27A1AE",
"o.	c #4B47AA",
"p.	c #4E0D95",
"q.	c #7D01A7",
"r.	c #7208A2",
"s.	c #572A98",
"t.	c #9101D4",
"u.	c #7B04C7",
"v.	c #100205",
"w.	c #2C618B",
"x.	c #4388CB",
"y.	c #1E93A9",
"z.	c #6222AD",
"A.	c #9D06CC",
"B.	c #0E0614",
"C.	c #3F5281",
"D.	c #5C49C6",
"E.	c #239BAB",
"F.	c #5839AE",
"G.	c #8809CC",
"H.	c #6833CA",
"I.	c #5364CB",
"J.	c #29B2C5",
"K.	c #21BAC8",
"L.	c #6A0393",
"M.	c #239CB0",
"N.	c #475BA6",
"O.	c #6635B9",
"P.	c #7814B8",
"Q.	c #140041",
"R.	c #8209CA",
"S.	c #810BC3",
"T.	c #6052CB",
"U.	c #674AD5",
"V.	c #5048AB",
"W.	c #22B1BB",
"X.	c #6765F1",
"Y.	c #5B39B3",
"Z.	c #2BB1D3",
"`.	c #2294A5",
" +	c #5E30AA",
".+	c #480F74",
"++	c #24ACC1",
"@+	c #8203BC",
"#+	c #4362AC",
"$+	c #3D69AE",
"%+	c #6A29BC",
"&+	c #7223BB",
"*+	c #5383E4",
"=+	c #2AACC4",
"-+	c #740199",
";+	c #3A89C7",
">+	c #734BD9",
",+	c #1E95A4",
"'+	c #7013AD",
")+	c #6507A6",
"!+	c #33AED2",
"~+	c #5B5DD1",
"{+	c #4490CB",
"]+	c #1DB4D1",
"^+	c #31C0D6",
"/+	c #6248BD",
"(+	c #9518E5",
"_+	c #28C2CD",
":+	c #5357C2",
"<+	c #6339C7",
"[+	c #812BD9",
"}+	c #3DA2E2",
"|+	c #5A2DB2",
"1+	c #5742B5",
"2+	c #6F04C1",
"3+	c #3379B2",
"4+	c #771BC7",
"5+	c #307A97",
"6+	c #56097A",
"7+	c #24A2BB",
"8+	c #5A7DE5",
"9+	c #308CA8",
"0+	c #7213C4",
"a+	c #4A9ADB",
"b+	c #6B61ED",
"c+	c #9224F7",
"d+	c #56127F",
"e+	c #60098C",
"f+	c #4F4DB3",
"g+	c #1FA0AF",
"h+	c #2DA2C3",
"i+	c #278AB5",
"j+	c #4957AC",
"k+	c #751DA7",
"l+	c #74028C",
"m+	c #8618D9",
"n+	c #4D0385",
"o+	c #710261",
"p+	c #8D009D",
"q+	c #483CA6",
"r+	c #15043C",
"s+	c #451481",
"t+	c #329EB3",
"u+	c #050539",
"v+	c #8A1AAA",
"                                                                                                                                ",
"                                                                                                                                ",
"                                                                                                                                ",
"                                                                                                                                ",
"                                                                                                                                ",
"                                                                                                                                ",
"                                                                                                                                ",
"                                                    . + @ #                                                                     ",
"                                                $ % & * = @ - ; > ,                                                             ",
"                                            ' ) ! ~ { ] ^ ~ / ( _ : < [ } |                                                     ",
"                                            1 2 3 4 5 5 5 5 6 5 7 8 9 0 a - } [ |                                               ",
"                                        b $ # c 6 4 5 5 5 5 5 5 7 ] ] d 5 e f g h i ) j <                                       ",
"                                        | k c ] 4 5 6 6 5 5 ] 5 4 4 5 4 { l m n o p q q r i s                                   ",
"                                    t | u v 5 5 5 5 5 6 5 6 6 6 5 4 5 7 l w ( x x y p r r p u 2 z                               ",
"                                    A < B d 6 6 5 5 5 6 5 5 5 5 5 5 5 C w 0 x D E F G p p q q ! H                               ",
"                                I J i K ^ 4 ] 5 6 5 5 5 5 6 5 5 5 5 L M N x E O O E F y P < Q R S } [                           ",
"                              T t > U V ] ] ] 4 5 6 5 5 5 5 6 5 { 4 M 3 x W O O O O O O X Q Y Z 3 } ` A                         ",
"                               ...+.@.C 5 { 5 5 6 6 5 6 6 ] 5 5 ^ M #.D x O W O O O O O O $.%.&.} X y *.                        ",
"                          =.J p -.E ;.>.,.V '.C e ] 5 5 6 6 6 { %.).!.x O O W O O O O O O O !.~.{.G y {.].                      ",
"                          ^.P /.].(._.(.:.<.[.}.,.|.l d 1.4 5 2.3.!.O O O O O O O O O O O O O 4.G G G {.>                       ",
"                      J 5.6.]./.7.8.8.8.9.0.a.8.a.b.c.d.e.'.f.g.h.x F O O O W O O E O O O O O O i.y {.G ].                      ",
"                      5.g -.- -.4.8.:.9.8.(.a._.8.a._.8.j.k.e.l.h.m.E O O O O O O O O O W O O W O i.y y y *.                    ",
"                  A 5./.- /./.- W 8.8.8.8.8.:.8.8.8.8.8.a.7.@.n.o.{.O O O W O O O O O O O O O O O O m.7.{.G p.                  ",
"                  i *.q./.- -.{._.8.8.8.8.8.8.8.8.8.8.8.9.G B Z N /.{.E F O O O O O O O O O W O O O O i.G G 6.                  ",
"                , r./.-.- - /.7.:.8.9.:.8.8.8.8.8.8.8.8.8.-.s.Z #.: - G E O O O O O O O O O O O O O O O t.7.u.                  ",
"              v.w.x./ a - -./.m.8.8.8.8.8.8.8.(.8.8.8.8.F P ! ,.y.z.]./.{.O O E O O O O O E O O O O O O O D u.A.                ",
"              B.C.|.C L C }.D.x 8.8.8.8.8.8.8.8.8.8.8.8.E < u Y E.F.-.-./.G O O O O O O O O O O O O O O O F G.{.                ",
"              r ` H.I.Y J.K.^ a.8.8.8.8.8.8.(.8.(.8.8.8.{.L.r 3 M.N./.-.- - G i.O O O O O O O O O W O O O E O.P.P               ",
"              Q.q.R.G ].S.T.U.a.8.8.8.8.8.8.8.8.8.(.:.(.g p p V.W.m -.-.].-./.].i.F O O O O O O O O O W F X.Z Y.X               ",
"                [ G G G G o 4.9.8.(.8.8.(.8.8.8.(.8.:.F p q p k Z y.- /./.-.-.- ].t.O O O O O O O O E x !.Z.`. +5.              ",
"                .+G G G G G _.(.8.8.8.8.8.8.8.(.8.:.8.4.p q q L.++S F.-./.].- - /.- 4.O O O O O O O m.<.^ S l.o.<               ",
"                  @+G G G R.9.(.8.8.8.(.8.8.8.8.8.8.(.].u q q P #+@.` -././.- /./.- ].4.O W O O O O W }.n.y.l.$+`               ",
"                  7.G G ].4.8.(.8.8.8.8.8.8.8.8.8.8.9.6.q q u q % %+= = &+- ` ].- - -.].i.E O x E F *+=+`.`.l.&.+.              ",
"                  q G G y W :.8.(.8.8.8.8.8.8.8.8.:.O p q u -+q ;+{ ~ Z.~ R c O.` -.` g ].4.O F E >+2.).l.).`.,+'+              ",
"                  )+{.y G F :.8.8.8.(.8.8.8.8.8.8.8.i.q L.p q ;+f.!+~+{+]+l V ^+5 x./+%+- ].7.F (+'.E.y.`.l.).`.:               ",
"                  ^.- y 7.0.:.8.8.8.8.8.8.8.8.8.8.:.]...q p V.Z.y.( {.@+&+( / e.2.C _+e R :+<+[+}+M `.`.l.`.y.,+|+<             ",
"                    @ y G.8.:.8.8.(.8.8.8.8.8.8.8.0.+.< L.K l l.1+G G o o G R.G H.I.;+=+'.V _+5 n.l.,+`.`.y.l.`.o.2+            ",
"                    6.G W :.8.8.8.8.8.8.8.8.8.8.8.F u P ! !+M.3+o G S.G R.G G G G G @+4+1+x.=+%.l.y.,+`.l.,+`.l.5+6+            ",
"                    k {.O 9.a.9.9._.(.8.8.8.0.8.8.D q ! e.7+3+@+G G G G G G G G G G G y R.X G.}.w ).l.l.,+).`.).).              ",
"                      h z.8+X.b.a.(.a.8.8.8.:.8.:.].# ;+M 9+0+y G G G G G G G G G 7.7.7.i.4.4.c E.l.l.l.`.,+).3+&+              ",
"                      L.o.2.d ] a+b+c+8.8.8.8.8.F [ v K.3.O.G G G G G G y G X i.i.i.t.i.t.t.t.T.Z `.,+,+`.).).Y.                ",
"                      d+e+=+J.2.l C e }+b+b.j.a.F v e ).Y.G u.y G G o 7.i.i.i.i.i.i.i.i.i.i.i.~.7+`.,+`.l.l.f+G.                ",
"                      A i Y |.f.J.J.|.2.C L R 8+>+2.g+#+G G G o X X i.i.t.i.i.i.t.i.t.i.t.i.t.$.h+`.`.,+`.3+P.                  ",
"                        i #+J.J.J.f.J.2.2.|.'.C ^ E.$+G.7.X i.i.i.i.t.4.i.i.t.i.i.i.i.i.i.i.i.t.Y ).`.`.i+&+o                   ",
"                        2 s.2.|.f.|.|.|.|.J.J.J.J.l.H.m.i.i.i.i.t.i.t.i.i.i.t.i.i.i.t.i.i.i.i.4.{+M.).`.1+7.                    ",
"                          k @.|.J.|.|.|.J.|.J.J.l E.1+X m.i.i.i.i.i.i.i.t.i.i.i.t.i.i.i.t.i.i.4.T.M.`.f ;                       ",
"                          2 j+|.|.|.|.|.|.J.2.J.J.Z 3+t.4.i.i.t.i.i.i.i.i.i.t.i.i.i.i.i.i.i.i.i.U.M 3 k+m.                      ",
"                          i ! f.f.|.J.|.|.f.|.|.J.=+#.G.4.i.i.i.t.i.t.i.i.i.i.i.i.i.t.i.i.i.i.i.G.;+F.=                         ",
"                          | p =+J.J.|.|.|.J.|.|.|.K.).~.i.i.i.i.i.i.i.i.i.t.i.i.i.t.i.i.m.i.i.i.i.R.;                           ",
"                            i J.J.J.|.|.|.|.|.|.|.K.M 1+i.i.i.t.i.i.t.i.i.i.i.i.i.i.i.i.4.X o {.].l+                            ",
"                              ,.=+f.|.J.|.|.|.|.2.2.Z 3+t.t.i.i.t.i.i.t.t.i.i.4.t.i.i.G ].].g - e+                              ",
"                                + 0+( ;+=+%.|.|.2.|.++S R.i.i.i.i.i.i.X X E m+G.G ].- /./.6.n+                                  ",
"                                  o+} -.4+* ;+!+|.f.f.g.<+4.t.i.i.i.i.t.{.I.i+k+` - g r L.5.                                    ",
"                                        p+7.y _ ( }.J.H a 4.i.7.y -.6.p q N.n.q+-.@ 5.=.                                        ",
"                                            r+p.+.; $.<+@+]./.+.p r q u P s+t++ @ $                                             ",
"                                                  u+v+{.6.r.P L.P -+P h -+-+                                                    ",
"                                                                                                                                ",
"                                                                                                                                ",
"                                                                                                                                ",
"                                                                                                                                ",
"                                                                                                                                ",
"                                                                                                                                ",
"                                                                                                                                ",
"                                                                                                                                "};
