/* XPM */
static char * 2001_10_16_142158_shot_xpm[] = {
"64 64 247 2",
"  	c None",
". 	c #42C9CC",
"+ 	c #33CCCB",
"@ 	c #17CFD5",
"# 	c #2BB8B2",
"$ 	c #33D3D7",
"% 	c #2AC9D4",
"& 	c #2CCADC",
"* 	c #2DCBE2",
"= 	c #2BD2E2",
"- 	c #31CADA",
"; 	c #448CD4",
"> 	c #570888",
", 	c #28D6DA",
"' 	c #35C6D7",
") 	c #2ED4EC",
"! 	c #33C7E7",
"~ 	c #30C9E1",
"{ 	c #6716A6",
"] 	c #460476",
"^ 	c #320351",
"/ 	c #5365CC",
"( 	c #53037D",
"_ 	c #0A0134",
": 	c #690792",
"< 	c #3A5B9C",
"[ 	c #33D6E7",
"} 	c #32B6D8",
"| 	c #621597",
"1 	c #480868",
"2 	c #250039",
"3 	c #690DB0",
"4 	c #7908C4",
"5 	c #6594A6",
"6 	c #7D02BC",
"7 	c #581792",
"8 	c #3B0867",
"9 	c #630493",
"0 	c #7403AD",
"a 	c #7D04C1",
"b 	c #8202C2",
"c 	c #8901CC",
"d 	c #504FB4",
"e 	c #1A808C",
"f 	c #6C03A2",
"g 	c #8102BD",
"h 	c #68049A",
"i 	c #3D88C4",
"j 	c #3EAFE6",
"k 	c #540381",
"l 	c #7806B3",
"m 	c #8A07D2",
"n 	c #8503CB",
"o 	c #8D02D4",
"p 	c #8316D3",
"q 	c #2497A9",
"r 	c #347980",
"s 	c #454AA1",
"t 	c #33BEE1",
"u 	c #6825B7",
"v 	c #5959C9",
"w 	c #208494",
"x 	c #417588",
"y 	c #550378",
"z 	c #5D0993",
"A 	c #6B33C4",
"B 	c #8114CC",
"C 	c #4095D2",
"D 	c #3081AB",
"E 	c #7418BA",
"F 	c #2783A6",
"G 	c #1D7A87",
"H 	c #2D8589",
"I 	c #4353A3",
"J 	c #2BC5E0",
"K 	c #7C14C5",
"L 	c #3B99D2",
"M 	c #2ABDD3",
"N 	c #27A3BB",
"O 	c #3D66AA",
"P 	c #8709CB",
"Q 	c #6747D0",
"R 	c #296978",
"S 	c #630499",
"T 	c #522493",
"U 	c #4472BA",
"V 	c #6C37C9",
"W 	c #22879A",
"X 	c #2F89B1",
"Y 	c #1C7E8D",
"Z 	c #782ED0",
"` 	c #277DA2",
" .	c #4A4AA5",
"..	c #50208F",
"+.	c #3D79B7",
"@.	c #8308C5",
"#.	c #279BB5",
"$.	c #1C8795",
"%.	c #217C8C",
"&.	c #267975",
"*.	c #3895C6",
"=.	c #1C7E90",
"-.	c #2C6B9A",
";.	c #6129AF",
">.	c #3593BC",
",.	c #8115C6",
"'.	c #29BED6",
").	c #2CC3DB",
"!.	c #4E78D4",
"~.	c #17838A",
"{.	c #33639B",
"].	c #5C2DB1",
"^.	c #4590C0",
"/.	c #7B16C7",
"(.	c #5077CE",
"_.	c #9509D8",
":.	c #32A3C5",
"<.	c #1B7D64",
"[.	c #37BDA9",
"}.	c #8802C6",
"|.	c #6547C9",
"1.	c #9001D6",
"2.	c #9101D8",
"3.	c #6A54D9",
"4.	c #32B6CB",
"5.	c #257896",
"6.	c #1B7381",
"7.	c #195862",
"8.	c #17575B",
"9.	c #1A6263",
"0.	c #176774",
"a.	c #15636B",
"b.	c #19626A",
"c.	c #8E02D8",
"d.	c #9A19F4",
"e.	c #47A2B0",
"f.	c #003449",
"g.	c #225D67",
"h.	c #2AC6C9",
"i.	c #5439A7",
"j.	c #164B56",
"k.	c #14363A",
"l.	c #14484B",
"m.	c #276466",
"n.	c #145A62",
"o.	c #1A727F",
"p.	c #7525C6",
"q.	c #2ABCCD",
"r.	c #7238D4",
"s.	c #253542",
"t.	c #1F8FA4",
"u.	c #193A41",
"v.	c #3B5792",
"w.	c #8005AD",
"x.	c #25A3B2",
"y.	c #340039",
"z.	c #2AB6C7",
"A.	c #346399",
"B.	c #4FACAA",
"C.	c #7656F1",
"D.	c #3D6FB1",
"E.	c #29A9C1",
"F.	c #31C3DB",
"G.	c #7854EE",
"H.	c #A503FA",
"I.	c #AB00FD",
"J.	c #3F50A0",
"K.	c #1F95A5",
"L.	c #094444",
"M.	c #AB03F4",
"N.	c #13725B",
"O.	c #0FB8AC",
"P.	c #52ABAD",
"Q.	c #A303EC",
"R.	c #30A3AA",
"S.	c #1B929E",
"T.	c #A605E8",
"U.	c #9B02E5",
"V.	c #4B3399",
"W.	c #CC04FF",
"X.	c #6B18B3",
"Y.	c #5A0383",
"Z.	c #65005B",
"`.	c #A506F5",
" +	c #6075E5",
".+	c #3E145E",
"++	c #31D4EC",
"@+	c #5479DC",
"#+	c #A005DA",
"$+	c #2F4F50",
"%+	c #31D5F0",
"&+	c #6B38A4",
"*+	c #3B070B",
"=+	c #6668DE",
"-+	c #32BCD4",
";+	c #6669E5",
">+	c #6D2AC3",
",+	c #8E06E3",
"'+	c #6808AA",
")+	c #4E3293",
"!+	c #5385DE",
"~+	c #073039",
"{+	c #4360AA",
"]+	c #34ACD5",
"^+	c #14514C",
"/+	c #102E36",
"(+	c #4BB1E2",
"_+	c #4AC8EC",
":+	c #3AFCF4",
"<+	c #38FAEB",
"[+	c #2FAFD5",
"}+	c #5968D3",
"|+	c #48028E",
"1+	c #39FEFD",
"2+	c #3CEBF2",
"3+	c #40519F",
"4+	c #13BDC3",
"5+	c #0E433E",
"6+	c #35FBF8",
"7+	c #36E6E7",
"8+	c #3786BB",
"9+	c #6CC5C9",
"0+	c #6255C0",
"a+	c #53148B",
"b+	c #55C9D6",
"c+	c #40AFE7",
"d+	c #8836F2",
"e+	c #43479E",
"f+	c #6BA2A9",
"g+	c #9203B5",
"h+	c #541778",
"i+	c #49FAE7",
"j+	c #5396E6",
"k+	c #29A6AD",
"l+	c #5830AB",
"m+	c #4483C4",
"n+	c #7902A8",
"o+	c #45D0EF",
"p+	c #50B1EB",
"q+	c #7F0AD5",
"r+	c #A80094",
"s+	c #88139F",
"t+	c #8E30EE",
"u+	c #40A3DC",
"v+	c #001A38",
"w+	c #AE12EA",
"x+	c #40A4CE",
"                                                            . + @                                                               ",
"                                                # $ % $ & * = - ; >                                                             ",
"                                        , - ' * - ) * * ! = ~ * ! { ]                                                           ",
"                                    ^ % * * * * * ! = ~ = ~ = = * / ( ]                           _                             ",
"                                    : < = * * = * * * [ * * * * ~ } | ( 1                   2 3 4 4 5                           ",
"                                  ] 6 7 * ! = * * * * * * * * ~ = & / ( ( 8       9 4 0 0 a b c c c d e                         ",
"                                  f g h i * * * * * * * * = ) * ~ ) j h ( k 3 l m n n c c c o c c c p q r                       ",
"                                  6 6 l s * * * * [ * * * * * * * t u 4 { c c c c c c c c c c c c c c v w x                     ",
"                                y 6 g 6 z } * * * * * * * * & & t A B C D E c c c c c c c c c c c c c B F G H                   ",
"                                b a g 6 h I & & J * & * & * * t A K L M N O P c c c c c c c c c c c c c Q w H R                 ",
"                            _   6 6 6 b a S T U J * * * * * t V 4 L M M M W u c c c c c c c c c c c c c P X Y G r               ",
"                          z n b n c n m Z `  .h ..+.J J * t V @.L M M M % N O m o c c c c c c c c c c c Q M #.$.%.&.            ",
"                g 6 n c c n c c c c c o b *.=.-.;.S T >.& A ,.L '.M M M M M $.E c c c c c c n c c c n v ).!.p / q e &.          ",
"            h c c c c o c c c c c o c c n v $.Y ~.{.].h ^./.C M M M M M M M N s @.c c c c c c c n P (.).!.6 o _.Z +.$.          ",
"          :.s m c c c c c c c c c c c c c Z q =.Y Y $.&.<.[.w e %.e Y =.Y =.=.G {.u n c c c }.n K (.).|.g }.1.2.2.2.3.*.        ",
"          4.5.c c c c c c c c c c c c c c n i Y Y Y 6.7.    8.9.7.0.a.a.a.a.a.b.0.G {.u n c n /.(.& |.a 6 c 1.2.2.o c.c d.      ",
"        e.M q E c c c c c o c c c c n c c c v W Y 0.f.            g.b.b.a.a.0.7.a.0.0.Y s E p L } |.6 6 g o c.1.o 2.1.c z       ",
"        h.h.N i.c n c c c c c c c c c c c P Q q j.k.                l.m.b.a.a.a.a.b.n.b.o.R !.} p.a 6 6 b o c.2.1.2.2.a         ",
"        q.M M {.c c c c c c c c c c c n c r.#.j.s.                                            l g 6 g 6 n 2.c.2.1.2.o 6         ",
"      4.q.M M t.K c c c c c c c c c c m V N 8.u.                                            m.v.6 g a 6 c 1.1.o 1.o 2.w.        ",
"      h.'.'.q.x. .@.c n c c n c c n n V #.7.k.                                              7.6.;.6 a b c 2.1.1.2.c.c y.        ",
"      z.q.M '.'.N 5. ./.}.}.c c n c V :.7.u.                                                n.a.A.6 g b 2.2.1.2.c.2.@.          ",
"    B.M '.M & C.A D.E.W I u }.}.c V q g.                                                    n.n.6.;.a n 2.1.1.o 1.2.a           ",
"    z.M '.F.G.H.I.f 7 J.:.K.A.E E #.L.                                                      8.n.a.{.a c o 1.1.2.2.o 0           ",
"    q.% ' C.M.H.I.M.0 k > I >.q [.N.                                                        n.n.n.6.;.c.2.2.2.c.1.c h           ",
"  O.M '.C.I.I.I.I.I.I.f ( k k y P.                                                          n.n.n.7.-.p.o 2.c.2.2.m             ",
"  h.'.G.M.I.I.I.I.I.I.Q.9 ( ( k :.                                                          7.n.n.n.z.$. .p 2.c.2.6             ",
"  F.C.M.I.I.I.I.I.I.I.I.Q.S ( k O R.                                                        7.n.n.0.- J E.S. .p o S 8           ",
"  T.H.I.I.I.I.I.I.I.I.I.I.U.S ( V.z.                                                      u.7.n.n.G * J & & z.-.l k 1 1         ",
"  W.T.M.I.I.I.I.I.I.I.I.I.I.Q.9 > :.                                                        8.7.n.Y * * * * J ; X.Y.Y.] Z.      ",
"    ( M.`.M.I.I.I.I.I.I.I.I.I.2.Y.D.@                                                       l.8.n.%.* * ! * ; @.p. +X.Y.( .+    ",
"      I.M.I.I.I.I.I.I.I.I.I.I.I.o  .h.                                                        8.n.q * J & v @.Q '.) ++@+X.( ^   ",
"        Y.#+M.M.I.I.I.I.I.I.I.I.H._.M                                                         $+7.q & J v }.v M ).++%+%+++@+&+*+",
"          U.`.I.I.I.I.I.I.I.I.I.M.=+).-+                                                        7.x.} A b (.M M * %+%+%+%+++[ *+",
"            c Q.M.I.I.I.I.I.I.I.;+F.* J                                                         g.:.>+/.L M '.'.++%+++%+++%+)   ",
"              ,+`.M.I.I.I.I.I.;+).& & !                                                           | /.L q.M M ).%+%+%+%+%+%+$   ",
"              2 g H.I.I.H.M.;+).& & J q                                                         6.y h.M M M '.).++%+%+%+%+++$   ",
"              '+g 2.H.I.H.;+J - * * * $                                                       l.o.;.)+M M M '.! %+%+%+%+%+[     ",
"              6 6 b 2.Q.!+F.* * ).* * %                                                     k.b.=.< > :.M M % ) %+%+%+%+%+++    ",
"              0 6 g a f >.).* & - * * F.                                                  ~+l.o.Y %.T  .'.'.'.%+++%+%+++++=     ",
"            y 6 b 6 6 6 h 7 {+]+* * & %                                               ^+k./+0.Y Y Y < z :.M * %+%+%+%+++++.     ",
"            0 6 6 6 /.(+U u 3 9 T D.-+$                                               u.k.R S.e Y G 5.| s M * %+%+%+%+++)       ",
"            l a b ,._+:+<+K.%.J.u 3 | P.                                            ~+k.w [+}+L q $.Y s > [+++%+%+%+%+++[       ",
"          |+g 6 B _+1+1+1+2+S.Y =.-.3+R -+4+% 4+                                  5+l.$.L p.2.1.r.; E.W z O ++++) %+%+%+[       ",
"          w.g B _+6+1+1+1+1+[ $.e =.Y J.: ]+q.M 4.4.h.# R.                      /+L.x.C K b o 1.2.1.p }+K 9 V.C ! %+%+[ +       ",
"          6 p._+1+1+1+1+1+1+1+7+$.e Y 5.h 8+M M M '.h.M M -+, $                 b.#./ @.g c 2.o 2.2.2.,+c n g h T U ! [ 9+      ",
"          0+2+1+1+1+1+1+1+1+1+1+7+$.e %.{ s M -+M M M M M ).3.8+-+% h.        0.} v g 6 6 c 2.1.1.1.1.1.c c n n }.0 a+b+        ",
"          <+1+:+1+1+1+1+1+1+1+1+1+% Y Y i.a+z.M M M M '.c+d+M.m a+e+i , '   f+} A g g 6 b 1.2.2.1.2.2.o c }.}.a 4 6 g+          ",
"            :+1+1+1+1+1+1+1+1+1+1+1++ 5.{.S 8+M M q.).j d.I.I.H.c ( ( a+s h+  f 6 6 g 6 }.2.1.1.1.1.o c l l ]                   ",
"              i+1+1+1+1+1+1+1+1+1+1+1+h.=.'+e+M M ).j+d.I.I.M.I.I.c ( Y.Y.h+k+i.6 6 g 6 c 2.2.2.1.1.2.4                         ",
"              i+6+1+1+1+1+1+1+1+1+1+1+1+h.l+..M F.j+H.I.I.I.I.I.I.I.l ( ( k D -.g 6 6 6 c 2.1.o 1.c.2.P                         ",
"                <+6+1+1+1+1+1+1+1+1+1+1+1+m+9 +.;+`.I.I.I.I.I.I.I.I.M.0 ( k V.t.X.6 6 b c.2.2.2.2.c.o K                         ",
"                  1+:+1+1+1+1+1+1+1+1+1+i+Q a }.I.I.I.I.I.I.I.I.I.I.I.M.n+k ( #.s a 6 n 2.o 2.o o 2.c._                         ",
"                    i+1+1+1+1+1+1+1+1+o+Z a n c U.I.I.I.I.I.I.I.I.I.I.I.H.0 ( D.W l g c 1.1.1.1.1.1.m                           ",
"                      <+1+6+1+1+6+1+o+/.n n n n c U.M.I.I.I.I.I.I.I.I.I.I.H.h T q l+a 1.1.1.2.1.1.1.n                           ",
"                        :+1+1+1+1+p+/.}.c c b n n 6 Q.M.I.I.I.I.I.I.I.I.I.I.Q.9 X A.b o 1.2.o 1.c.1.h                           ",
"                          :+1+:+j+@.m n b b q+l 2   T._.I.I.I.I.I.I.I.I.I.I.I.Q.d S.E 2.2.2.1.o 2.m                             ",
"                            6+(+b a 4 f               > `.M.I.I.I.I.I.I.I.I.I.I.d+E.`  .>+m o 1.o m                             ",
"                              r+s+                      `.`.I.I.I.I.I.I.I.I.I.G.} * ).M #.`  .p.2.w.                            ",
"                                                          8 Q.M.I.I.I.I.I.`. +).* - * - * & M #.d q+                            ",
"                                                            #+M.I.I.I.I.d.!+J ~ * * * & ' $ ' !                                 ",
"                                                              n+M.I.M.t+u+- * ~ & ' ' 4.v+                                      ",
"                                                                T.M.d+-+& & ' % +                                               ",
"                                                                  w+x+h..                                                       "};
